<?xml version="1.0" standalone="no"?><!DOCTYPE svg PUBLIC "-//W3C//DTD SVG 1.1//EN" "http://www.w3.org/Graphics/SVG/1.1/DTD/svg11.dtd"><svg width="100%" height="100%" viewBox="0 0 47 37" version="1.1" xmlns="http://www.w3.org/2000/svg" xmlns:xlink="http://www.w3.org/1999/xlink" xml:space="preserve" style="fill-rule:evenodd;clip-rule:evenodd;stroke-linejoin:round;stroke-miterlimit:1.41421;"><g id="Layer1"><path d="M14.625,35.594c-2.406,-8.5 -3.656,-13.328 -3.75,-14.485l-0.609,0.188c-1.032,5.75 -1.797,10.109 -2.297,13.078l-7.781,2.016c3.25,-15.719 5.234,-26.875 5.953,-33.469c3.625,-1.125 7.687,-1.688 12.187,-1.688c3.375,0 5.375,1.172 6,3.516c0.188,0.719 0.281,1.609 0.281,2.672c0,1.062 -0.218,2.211 -0.656,3.445c-0.437,1.235 -1.031,2.414 -1.781,3.539c-1.563,2.282 -3.484,4.032 -5.766,5.25c1.219,2.625 2.305,5.102 3.258,7.43c0.953,2.328 1.758,4.289 2.414,5.883l-7.453,2.625ZM15.094,7.891l-2.063,0.046l-1.547,7.641c1.25,-0.125 2.829,-0.922 4.735,-2.39c1.969,-1.5 2.953,-2.735 2.953,-3.704c0,-0.906 -0.859,-1.421 -2.578,-1.546c-0.5,-0.032 -1,-0.047 -1.5,-0.047Z" style="fill:#fb4f4f;fill-rule:nonzero;"/><path d="M43.031,24.531c0,1.157 -0.273,2.297 -0.82,3.422c-0.547,1.125 -1.281,2.141 -2.203,3.047c-0.922,0.906 -2,1.703 -3.235,2.391c-1.234,0.687 -2.539,1.265 -3.914,1.734c-2.687,0.938 -5.437,1.406 -8.25,1.406c-1.187,0 -2.296,-0.093 -3.328,-0.281c1.532,-5.594 2.75,-11.234 3.657,-16.922c0.906,-5.687 1.781,-11.406 2.625,-17.156c4.375,-0.906 7.953,-1.36 10.734,-1.36c3.281,0 5.562,1.125 6.844,3.375c0.5,0.844 0.75,1.883 0.75,3.118c0,1.234 -0.196,2.383 -0.586,3.445c-0.391,1.063 -0.899,2.031 -1.524,2.906c-1.281,1.75 -2.812,2.953 -4.593,3.61c2.562,1.562 3.843,3.984 3.843,7.265ZM30.703,26.828c2.844,-0.312 4.844,-1.109 6,-2.39c0.5,-0.563 0.75,-1.188 0.75,-1.875c0,-0.688 -0.148,-1.227 -0.445,-1.618c-0.297,-0.39 -0.68,-0.711 -1.149,-0.961c-0.937,-0.5 -1.953,-0.75 -3.046,-0.75l-0.422,0c-0.125,0 -0.25,0.016 -0.375,0.047c-0.125,0.781 -0.243,1.469 -0.352,2.063c-0.109,0.593 -0.211,1.164 -0.305,1.711c-0.093,0.547 -0.195,1.117 -0.304,1.711c-0.11,0.593 -0.227,1.281 -0.352,2.062ZM33.141,13.375c3.906,-0.875 5.859,-1.953 5.859,-3.234c0,-1.219 -1,-1.985 -3,-2.297c-0.5,-0.094 -0.937,-0.141 -1.312,-0.141l-0.516,0c-0.063,0.344 -0.133,0.758 -0.211,1.242c-0.078,0.485 -0.164,0.985 -0.258,1.5c-0.094,0.516 -0.195,1.032 -0.305,1.547c-0.109,0.516 -0.195,0.977 -0.257,1.383Z" style="fill:#fb4f4f;fill-rule:nonzero;"/></g></svg>