<?xml version="1.0" standalone="no"?>
<!DOCTYPE svg PUBLIC "-//W3C//DTD SVG 1.1//EN" "http://www.w3.org/Graphics/SVG/1.1/DTD/svg11.dtd">
<svg width="100%" height="100%" viewBox="0 0 238 37" version="1.1" xmlns="http://www.w3.org/2000/svg" xmlns:xlink="http://www.w3.org/1999/xlink" xml:space="preserve" style="fill-rule:evenodd;clip-rule:evenodd;stroke-linejoin:round;stroke-miterlimit:1.41421;">
    <g transform="matrix(1,0,0,1,-11.1806,24.245)">
        <g id="Layer1">
            <path d="M25.806,11.349C23.399,2.849 22.149,-1.979 22.056,-3.136L21.446,-2.948C20.415,2.802 19.649,7.161 19.149,10.13L11.368,12.146C14.618,-3.573 16.602,-14.729 17.321,-21.323C20.946,-22.448 25.009,-23.011 29.509,-23.011C32.884,-23.011 34.884,-21.839 35.509,-19.495C35.696,-18.776 35.79,-17.886 35.79,-16.823C35.79,-15.761 35.571,-14.612 35.134,-13.378C34.696,-12.143 34.102,-10.964 33.352,-9.839C31.79,-7.557 29.868,-5.807 27.587,-4.589C28.806,-1.964 29.892,0.513 30.845,2.841C31.798,5.169 32.602,7.13 33.259,8.724L25.806,11.349ZM26.274,-16.354L24.212,-16.307L22.665,-8.667C23.915,-8.792 25.493,-9.589 27.399,-11.057C29.368,-12.557 30.352,-13.792 30.352,-14.761C30.352,-15.667 29.493,-16.182 27.774,-16.307C27.274,-16.339 26.774,-16.354 26.274,-16.354Z" style="fill:rgb(251,79,79);fill-rule:nonzero;"/>
            <path d="M51.54,-9.839C51.54,-12.432 50.79,-13.729 49.29,-13.729C47.384,-13.729 45.665,-12.792 44.134,-10.917C42.915,-9.417 41.868,-7.37 40.993,-4.776C40.306,-2.651 39.962,-0.651 39.962,1.224C39.962,2.474 40.493,3.411 41.556,4.036C41.868,4.255 42.227,4.364 42.634,4.364C44.071,4.364 45.345,3.872 46.454,2.888C47.563,1.903 48.493,0.693 49.243,-0.745C49.993,-2.182 50.563,-3.722 50.954,-5.362C51.345,-7.003 51.54,-8.495 51.54,-9.839ZM58.196,-12.792C58.196,-10.886 57.923,-8.776 57.376,-6.464C56.829,-4.151 56.087,-2.026 55.149,-0.089C54.212,1.849 53.126,3.583 51.892,5.114C50.657,6.646 49.368,7.943 48.024,9.005C45.243,11.193 42.571,12.286 40.009,12.286C37.852,12.286 36.149,11.505 34.899,9.943C33.524,8.224 32.837,5.724 32.837,2.443C32.837,-1.12 33.665,-4.964 35.321,-9.089C36.977,-13.214 39.149,-16.651 41.837,-19.401C44.743,-22.339 47.79,-23.807 50.977,-23.807C53.602,-23.807 55.524,-22.745 56.743,-20.62C57.712,-18.901 58.196,-16.292 58.196,-12.792Z" style="fill:rgb(251,79,79);fill-rule:nonzero;"/>
            <path d="M64.102,5.349C65.29,5.255 66.946,5.208 69.071,5.208C69.134,6.427 69.227,7.419 69.352,8.185C69.477,8.95 69.563,9.513 69.61,9.872C69.657,10.232 69.696,10.474 69.727,10.599L68.274,10.552C64.993,10.552 61.727,10.849 58.477,11.443C57.415,11.661 56.446,11.911 55.571,12.193C56.321,6.411 57.313,0.333 58.548,-6.042C59.782,-12.417 60.837,-17.776 61.712,-22.12L70.149,-23.245C67.243,-10.932 65.548,-3.37 65.063,-0.557C64.579,2.255 64.259,4.224 64.102,5.349Z" style="fill:rgb(251,79,79);fill-rule:nonzero;"/>
            <path d="M78.306,5.349C79.493,5.255 81.149,5.208 83.274,5.208C83.337,6.427 83.431,7.419 83.556,8.185C83.681,8.95 83.767,9.513 83.813,9.872C83.86,10.232 83.899,10.474 83.931,10.599L82.477,10.552C79.196,10.552 75.931,10.849 72.681,11.443C71.618,11.661 70.649,11.911 69.774,12.193C70.524,6.411 71.517,0.333 72.751,-6.042C73.985,-12.417 75.04,-17.776 75.915,-22.12L84.352,-23.245C81.446,-10.932 79.751,-3.37 79.267,-0.557C78.782,2.255 78.462,4.224 78.306,5.349Z" style="fill:rgb(251,79,79);fill-rule:nonzero;"/>
            <path d="M84.071,12.146L90.352,-21.979L105.54,-23.292C105.321,-22.573 105.134,-21.878 104.977,-21.206C104.821,-20.534 104.665,-19.87 104.509,-19.214C104.352,-18.557 104.227,-17.979 104.134,-17.479C103.196,-17.386 101.915,-17.339 100.29,-17.339L97.056,-17.339L95.368,-8.714C97.087,-8.807 98.524,-8.87 99.681,-8.901C100.837,-8.932 101.587,-8.964 101.931,-8.995C101.806,-8.089 101.688,-7.206 101.579,-6.347C101.47,-5.487 101.337,-4.604 101.181,-3.698C100.837,-3.667 100.306,-3.643 99.587,-3.628C98.868,-3.612 98.118,-3.589 97.337,-3.557C96.556,-3.526 95.681,-3.495 94.712,-3.464L93.071,5.396L100.056,4.271L99.587,9.755L84.071,12.146Z" style="fill:rgb(251,79,79);fill-rule:nonzero;"/>
            <path d="M114.681,11.349C112.274,3.443 111.024,-1.073 110.931,-2.198L110.321,-2.011C110.071,-0.573 109.696,1.427 109.196,3.989C108.696,6.552 108.306,8.599 108.024,10.13L100.243,12.146C103.493,-3.573 105.477,-14.729 106.196,-21.323C109.821,-22.448 113.884,-23.011 118.384,-23.011C121.759,-23.011 123.759,-21.839 124.384,-19.495C124.571,-18.776 124.665,-17.886 124.665,-16.823C124.665,-15.761 124.446,-14.612 124.009,-13.378C123.571,-12.143 122.977,-10.964 122.227,-9.839C120.665,-7.557 118.743,-5.807 116.462,-4.589C117.681,-1.964 118.767,0.513 119.72,2.841C120.673,5.169 121.477,7.13 122.134,8.724L114.681,11.349ZM115.149,-16.354L113.087,-16.307L111.54,-8.667C112.79,-8.792 114.368,-9.589 116.274,-11.057C118.243,-12.557 119.227,-13.792 119.227,-14.761C119.227,-15.667 118.368,-16.182 116.649,-16.307C116.149,-16.339 115.649,-16.354 115.149,-16.354Z" style="fill:rgb(251,79,79);fill-rule:nonzero;"/>
            <path d="M143.087,0.286C143.087,1.443 142.813,2.583 142.267,3.708C141.72,4.833 140.985,5.849 140.063,6.755C139.142,7.661 138.063,8.458 136.829,9.146C135.595,9.833 134.29,10.411 132.915,10.88C130.227,11.818 127.477,12.286 124.665,12.286C123.477,12.286 122.368,12.193 121.337,12.005C122.868,6.411 124.087,0.771 124.993,-4.917C125.899,-10.604 126.774,-16.323 127.618,-22.073C131.993,-22.979 135.571,-23.432 138.352,-23.432C141.634,-23.432 143.915,-22.307 145.196,-20.057C145.696,-19.214 145.946,-18.175 145.946,-16.94C145.946,-15.706 145.751,-14.557 145.36,-13.495C144.97,-12.432 144.462,-11.464 143.837,-10.589C142.556,-8.839 141.024,-7.636 139.243,-6.979C141.806,-5.417 143.087,-2.995 143.087,0.286ZM130.759,2.583C133.602,2.271 135.602,1.474 136.759,0.193C137.259,-0.37 137.509,-0.995 137.509,-1.682C137.509,-2.37 137.36,-2.909 137.063,-3.3C136.767,-3.69 136.384,-4.011 135.915,-4.261C134.977,-4.761 133.962,-5.011 132.868,-5.011L132.446,-5.011C132.321,-5.011 132.196,-4.995 132.071,-4.964C131.946,-4.182 131.829,-3.495 131.72,-2.901C131.61,-2.307 131.509,-1.737 131.415,-1.19C131.321,-0.643 131.22,-0.073 131.11,0.521C131.001,1.114 130.884,1.802 130.759,2.583ZM133.196,-10.87C137.102,-11.745 139.056,-12.823 139.056,-14.104C139.056,-15.323 138.056,-16.089 136.056,-16.401C135.556,-16.495 135.118,-16.542 134.743,-16.542L134.227,-16.542C134.165,-16.198 134.095,-15.784 134.017,-15.3C133.938,-14.815 133.852,-14.315 133.759,-13.8C133.665,-13.284 133.563,-12.768 133.454,-12.253C133.345,-11.737 133.259,-11.276 133.196,-10.87Z" style="fill:rgb(251,79,79);fill-rule:nonzero;"/>
            <path d="M151.056,3.896L149.134,10.786C148.415,10.88 147.579,10.989 146.626,11.114C145.673,11.239 144.727,11.357 143.79,11.466C142.852,11.575 141.884,11.693 140.884,11.818C142.165,7.568 143.251,3.974 144.142,1.036C145.032,-1.901 145.759,-4.315 146.321,-6.206C146.884,-8.097 147.438,-9.972 147.985,-11.831C148.532,-13.69 149.063,-15.487 149.579,-17.222C150.095,-18.956 150.556,-20.542 150.962,-21.979C156.743,-22.386 161.149,-22.886 164.181,-23.479C163.899,-20.386 163.665,-16.729 163.477,-12.511C163.071,-4.104 162.727,3.646 162.446,10.739C161.509,10.896 160.595,11.036 159.704,11.161C158.813,11.286 157.892,11.427 156.938,11.583C155.985,11.739 155.118,11.88 154.337,12.005C154.681,9.005 154.977,6.302 155.227,3.896L151.056,3.896ZM152.181,-0.886L155.649,-1.12C155.649,-1.307 155.673,-1.628 155.72,-2.081C155.767,-2.534 155.821,-3.057 155.884,-3.651C156.134,-6.995 156.399,-10.104 156.681,-12.979L157.009,-17.151L156.259,-17.104L152.181,-0.886Z" style="fill:rgb(251,79,79);fill-rule:nonzero;"/>
            <path d="M185.884,10.693C184.384,10.63 182.813,10.599 181.173,10.599C179.532,10.599 177.806,10.63 175.993,10.693C175.368,6.661 174.743,2.302 174.118,-2.386L173.227,-1.401C173.009,-0.432 172.767,0.755 172.501,2.161C172.235,3.568 171.962,4.982 171.681,6.403C171.399,7.825 171.102,9.349 170.79,10.974L163.009,12.146C166.384,-3.479 168.399,-15.167 169.056,-22.917C169.806,-22.823 170.642,-22.753 171.563,-22.706C172.485,-22.659 173.384,-22.604 174.259,-22.542C175.134,-22.479 176.056,-22.448 177.024,-22.448C176.993,-22.323 176.946,-22.089 176.884,-21.745C176.821,-21.401 176.743,-20.979 176.649,-20.479C176.556,-19.979 176.454,-19.425 176.345,-18.815C176.235,-18.206 176.079,-17.393 175.876,-16.378C175.673,-15.362 175.415,-13.979 175.102,-12.229L175.384,-12.276C176.259,-13.62 177.165,-15.042 178.102,-16.542C179.977,-19.511 181.29,-21.557 182.04,-22.682C185.634,-22.964 188.821,-23.323 191.602,-23.761C186.165,-16.386 182.446,-11.089 180.446,-7.87C181.134,-4.651 181.962,-1.534 182.931,1.482C183.899,4.497 184.884,7.568 185.884,10.693Z" style="fill:rgb(251,79,79);fill-rule:nonzero;"/>
            <path d="M185.227,12.146L191.509,-21.979L206.696,-23.292C206.477,-22.573 206.29,-21.878 206.134,-21.206C205.977,-20.534 205.821,-19.87 205.665,-19.214C205.509,-18.557 205.384,-17.979 205.29,-17.479C204.352,-17.386 203.071,-17.339 201.446,-17.339L198.212,-17.339L196.524,-8.714C198.243,-8.807 199.681,-8.87 200.837,-8.901C201.993,-8.932 202.743,-8.964 203.087,-8.995C202.962,-8.089 202.845,-7.206 202.735,-6.347C202.626,-5.487 202.493,-4.604 202.337,-3.698C201.993,-3.667 201.462,-3.643 200.743,-3.628C200.024,-3.612 199.274,-3.589 198.493,-3.557C197.712,-3.526 196.837,-3.495 195.868,-3.464L194.227,5.396L201.212,4.271L200.743,9.755L185.227,12.146Z" style="fill:rgb(251,79,79);fill-rule:nonzero;"/>
            <path d="M215.837,11.349C213.431,3.443 212.181,-1.073 212.087,-2.198L211.477,-2.011C211.227,-0.573 210.852,1.427 210.352,3.989C209.852,6.552 209.462,8.599 209.181,10.13L201.399,12.146C204.649,-3.573 206.634,-14.729 207.352,-21.323C210.977,-22.448 215.04,-23.011 219.54,-23.011C222.915,-23.011 224.915,-21.839 225.54,-19.495C225.727,-18.776 225.821,-17.886 225.821,-16.823C225.821,-15.761 225.602,-14.612 225.165,-13.378C224.727,-12.143 224.134,-10.964 223.384,-9.839C221.821,-7.557 219.899,-5.807 217.618,-4.589C218.837,-1.964 219.923,0.513 220.876,2.841C221.829,5.169 222.634,7.13 223.29,8.724L215.837,11.349ZM216.306,-16.354L214.243,-16.307L212.696,-8.667C213.946,-8.792 215.524,-9.589 217.431,-11.057C219.399,-12.557 220.384,-13.792 220.384,-14.761C220.384,-15.667 219.524,-16.182 217.806,-16.307C217.306,-16.339 216.806,-16.354 216.306,-16.354Z" style="fill:rgb(251,79,79);fill-rule:nonzero;"/>
            <path d="M239.602,-12.417C239.759,-13.042 239.837,-13.698 239.837,-14.386C239.837,-15.073 239.665,-15.628 239.321,-16.05C238.977,-16.472 238.61,-16.682 238.22,-16.682C237.829,-16.682 237.446,-16.589 237.071,-16.401C236.696,-16.214 236.321,-15.964 235.946,-15.651C235.071,-14.932 234.634,-14.159 234.634,-13.331C234.634,-12.503 234.852,-11.831 235.29,-11.315C235.727,-10.8 236.267,-10.323 236.907,-9.886C237.548,-9.448 238.243,-8.995 238.993,-8.526C239.743,-8.057 240.446,-7.464 241.102,-6.745C242.602,-4.995 243.352,-2.667 243.352,0.239C243.352,3.739 242.071,6.63 239.509,8.911C237.071,11.099 233.993,12.193 230.274,12.193C227.524,12.193 225.009,10.755 222.727,7.88L226.29,0.896C226.727,1.771 227.571,2.568 228.821,3.286C230.071,4.036 231.009,4.411 231.634,4.411C232.259,4.411 232.782,4.349 233.204,4.224C233.626,4.099 234.009,3.911 234.352,3.661C235.134,3.099 235.524,2.419 235.524,1.622C235.524,0.825 235.274,0.099 234.774,-0.557C234.274,-1.214 233.657,-1.839 232.923,-2.432C232.188,-3.026 231.392,-3.628 230.532,-4.237C229.673,-4.847 228.884,-5.495 228.165,-6.182C226.415,-7.745 225.54,-9.386 225.54,-11.104C225.54,-12.823 226.032,-14.401 227.017,-15.839C228.001,-17.276 229.235,-18.518 230.72,-19.565C232.204,-20.612 233.829,-21.44 235.595,-22.05C237.36,-22.659 238.852,-22.964 240.071,-22.964C241.29,-22.964 242.282,-22.854 243.048,-22.636C243.813,-22.417 244.477,-22.089 245.04,-21.651C246.259,-20.651 246.868,-19.182 246.868,-17.245C246.868,-16.776 246.829,-16.323 246.751,-15.886C246.673,-15.448 246.602,-14.964 246.54,-14.432L239.602,-12.417Z" style="fill:rgb(251,79,79);fill-rule:nonzero;"/>
        </g>
    </g>
</svg>
